<?xml version="1.0" encoding="utf-8"?>
<!-- Generator: Adobe Illustrator 17.0.0, SVG Export Plug-In . SVG Version: 6.00 Build 0)  -->
<!DOCTYPE svg PUBLIC "-//W3C//DTD SVG 1.1//EN" "http://www.w3.org/Graphics/SVG/1.1/DTD/svg11.dtd">
<svg version="1.1" id="Layer_1" xmlns="http://www.w3.org/2000/svg" xmlns:xlink="http://www.w3.org/1999/xlink" x="0px" y="0px"
	 width="56.69px" height="56.69px" viewBox="0 0 56.69 56.69" enable-background="new 0 0 56.69 56.69" xml:space="preserve">
<circle fill="#F4D1D8" stroke="#44131B" stroke-width="1.4173" cx="28.345" cy="28.345" r="26.513"/>
<g>
	<g id="XMLID_18_">
		<g>
			<g id="XMLID_19_">
				<g>
					<path fill="#47101A" d="M39.817,20.801c0.512,4.353-1.197,6.537-3.36,9.3l-0.117,0.151c-2.029,2.596-2.912,5.043-3.101,5.993
						c-0.036,0.281-0.433,3.339-0.532,4.369l-0.01,0.112c-0.134,1.395-0.261,2.714-1.347,3.634c-0.802,0.678-1.465,1.122-2.045,1.36
						c0.625-0.362,1.103-1.125,1.592-1.772c0.157-0.207,0.303-0.401,0.425-0.542c0.672-0.778,1.139-2.254,1.388-4.383
						c0.177-1.525,0.179-2.827,0.179-2.881l-0.001-0.643h-0.772c0.284-1.007,1.116-3.345,3.226-6.043l0.117-0.151
						c2.058-2.629,3.543-4.529,3.095-8.351c-0.31-2.624-1.504-4.875-3.456-6.507c-1.848-1.547-4.248-2.399-6.756-2.402
						c-2.507,0.003-4.907,0.855-6.755,2.402c-1.952,1.632-3.147,3.883-3.456,6.507c-0.398,3.391,0.812,5.099,2.488,7.466
						c0.243,0.342,0.494,0.696,0.748,1.068c1.988,2.91,2.858,5.089,3.173,6.011h-1.206l0.109,0.738
						c0.198,1.334,0.892,5.76,1.559,6.681c0.086,0.118,0.184,0.26,0.288,0.409c0.582,0.844,1.121,1.914,2.031,2.376
						c-0.559-0.239-1.198-0.676-1.987-1.343c-1.087-0.92-1.213-2.238-1.347-3.634l-0.01-0.112c-0.098-1.005-0.477-3.941-0.53-4.343
						c-0.087-0.305-0.814-2.667-3.128-6.052c-0.248-0.362-0.496-0.712-0.735-1.051c-1.703-2.405-3.174-4.481-2.717-8.366
						c0.347-2.959,1.699-5.5,3.907-7.346c2.073-1.734,4.755-2.692,7.556-2.697v-0.001c0.008,0,0.017,0,0.024,0
						c2.799,0.006,5.481,0.964,7.554,2.698C38.118,15.301,39.468,17.842,39.817,20.801z"/>
					<path fill="#FFFFFF" d="M38.553,20.953c0.449,3.822-1.037,5.721-3.095,8.351l-0.117,0.151c-2.11,2.698-2.942,5.037-3.226,6.043
						h-3.137V29.18l4.759-4.811c1.553-1.569,1.553-4.123,0-5.693c-0.752-0.761-1.753-1.18-2.817-1.18
						c-0.955,0-1.86,0.338-2.579,0.957c-0.718-0.62-1.623-0.957-2.579-0.957c-1.063,0-2.064,0.418-2.816,1.18
						c-0.752,0.76-1.167,1.771-1.167,2.846c0,1.076,0.415,2.086,1.167,2.846l4.759,4.812v6.316h-3.165
						c-0.315-0.922-1.185-3.101-3.173-6.011c-0.254-0.372-0.505-0.726-0.748-1.068c-1.676-2.367-2.887-4.075-2.488-7.466
						c0.308-2.624,1.504-4.875,3.456-6.507c1.848-1.547,4.248-2.399,6.755-2.402c2.509,0.003,4.908,0.855,6.756,2.402
						C37.05,16.078,38.244,18.329,38.553,20.953z"/>
					<path fill="#47101A" d="M33.738,18.677c1.553,1.569,1.553,4.123,0,5.693l-4.759,4.811v-0.265h-0.637l4.733-4.785l0.213-0.216
						c1.307-1.321,1.307-3.462,0-4.783c-1.307-1.321-3.426-1.321-4.733,0l-0.213,0.214l-0.212-0.214
						c-1.307-1.321-3.426-1.321-4.733,0s-1.307,3.462,0,4.783l0.213,0.216l4.732,4.785h-0.636v0.266l-4.759-4.812
						c-0.752-0.76-1.167-1.771-1.167-2.846c0-1.076,0.415-2.086,1.167-2.846c0.752-0.761,1.753-1.18,2.816-1.18
						c0.956,0,1.861,0.338,2.579,0.957c0.72-0.62,1.625-0.957,2.579-0.957C31.985,17.498,32.986,17.916,33.738,18.677z"/>
					<path fill="#47101A" d="M33.288,19.132c1.307,1.321,1.307,3.462,0,4.783l-0.213,0.216l-4.733,4.785l-4.732-4.785l-0.213-0.216
						c-1.307-1.321-1.307-3.462,0-4.783s3.426-1.321,4.733,0l0.212,0.214l0.213-0.214C29.861,17.811,31.981,17.811,33.288,19.132z
						 M32.838,23.46c1.056-1.068,1.056-2.806,0-3.874c-0.513-0.517-1.193-0.803-1.918-0.803c-0.724,0-1.403,0.286-1.916,0.803
						l-0.663,0.669l-0.662-0.669c-0.513-0.517-1.193-0.803-1.918-0.803c-0.724,0-1.403,0.286-1.916,0.803
						c-0.512,0.517-0.793,1.206-0.793,1.937c0,0.731,0.281,1.42,0.793,1.937l4.496,4.544L32.838,23.46z"/>
					<path fill="#F4D1D8" d="M32.838,19.587c1.056,1.068,1.056,2.806,0,3.874l-4.497,4.544l-4.496-4.544
						c-0.512-0.517-0.793-1.206-0.793-1.937c0-0.731,0.281-1.42,0.793-1.937c0.513-0.517,1.193-0.803,1.916-0.803
						c0.725,0,1.405,0.286,1.918,0.803l0.662,0.669l0.663-0.669c0.513-0.517,1.193-0.803,1.916-0.803
						C31.645,18.784,32.325,19.07,32.838,19.587z"/>
					<path fill="#47101A" d="M32.888,35.498l0.001,0.643c0,0.055-0.001,1.356-0.179,2.881c-0.249,2.129-0.716,3.605-1.388,4.383
						c-0.122,0.14-0.269,0.335-0.425,0.542c-0.49,0.647-0.968,1.41-1.592,1.772c-0.001,0.003-0.003,0.003-0.005,0.003
						c-0.342,0.14-0.654,0.209-0.948,0.212c-0.04,0-0.077,0-0.099-0.001c-0.292-0.012-0.596-0.086-0.932-0.23
						c-0.91-0.462-1.448-1.532-2.031-2.376c-0.104-0.149-0.202-0.291-0.288-0.409c-0.667-0.921-1.361-5.347-1.559-6.681
						l-0.109-0.738h1.206c0.099,0.29,0.143,0.455,0.149,0.481l0.01,0.039l0.005,0.039c0.001,0.01,0.005,0.039,0.012,0.084h-0.643
						c0,0,0.817,5.532,1.443,6.397c0.053,0.074,0.109,0.153,0.17,0.239c0.082,0.166,0.184,0.314,0.31,0.448
						c0.001,0,0.001,0.001,0.003,0.003c0.479,0.685,1.078,1.487,1.707,1.856v0.207h1.274v-0.212
						c0.569-0.366,1.117-1.134,1.554-1.707c0.001-0.001,0.001-0.003,0.003-0.003c0.197-0.166,0.343-0.357,0.456-0.579
						c1.267-1.819,1.261-6.649,1.261-6.649h-0.284c0.006-0.045,0.01-0.074,0.012-0.084l0.006-0.035
						c0.005-0.03,0.041-0.213,0.13-0.524H32.888z"/>
					<path fill="#47101A" d="M32.252,36.141c0,0,0.006,4.83-1.261,6.649c0.263-0.518,0.344-1.211,0.438-2.188l0.01-0.113
						c0.098-1.012,0.459-3.814,0.528-4.348H32.252z"/>
					<path fill="#47101A" d="M28.978,35.498h3.137c-0.089,0.31-0.125,0.494-0.13,0.524l-0.006,0.035
						c-0.001,0.01-0.005,0.039-0.012,0.084h-2.989V35.498z"/>
					<path fill="#47101A" d="M28.978,36.141h2.989c-0.069,0.534-0.431,3.336-0.528,4.348l-0.01,0.113
						c-0.094,0.977-0.175,1.669-0.438,2.188c-0.048,0.069-0.098,0.134-0.149,0.194c-0.094,0.109-0.198,0.242-0.307,0.386
						c-0.001,0-0.001,0.001-0.003,0.003c-0.619,0.525-1.139,0.889-1.554,1.09v-0.209c0.338-0.334,0.693-0.802,0.909-1.087
						c0.168-0.223,0.328-0.434,0.476-0.605c0.486-0.563,0.87-1.867,1.082-3.675c0.096-0.822,0.139-1.587,0.157-2.101h-2.623V36.141z
						"/>
					<path fill="#47101A" d="M28.978,36.784h2.623c-0.018,0.513-0.06,1.278-0.157,2.101c-0.212,1.808-0.596,3.113-1.082,3.675
						c-0.148,0.171-0.307,0.382-0.476,0.605c-0.216,0.286-0.571,0.753-0.909,1.087V36.784z"/>
					<path fill="#47101A" d="M30.842,42.983c0.051-0.06,0.102-0.125,0.149-0.194c-0.113,0.222-0.26,0.413-0.456,0.579
						C30.644,43.225,30.748,43.092,30.842,42.983z"/>
					<path fill="#47101A" d="M28.978,44.461c0.415-0.201,0.934-0.565,1.554-1.09c-0.437,0.573-0.984,1.341-1.554,1.707V44.461z"/>
					<path fill="#47101A" d="M28.978,45.079v0.212h-1.274v-0.207c0.209,0.123,0.423,0.199,0.636,0.205
						C28.553,45.295,28.768,45.215,28.978,45.079z"/>
					<path fill="#47101A" d="M28.978,44.461v0.617c-0.211,0.136-0.425,0.217-0.637,0.21c-0.213-0.006-0.427-0.082-0.636-0.205
						v-0.618c0.226,0.109,0.442,0.179,0.626,0.181c0.005,0,0.01,0,0.017-0.001c0.004,0.001,0.008,0.001,0.012,0.001h0.004
						c0.015,0,0.031-0.001,0.048-0.005C28.571,44.626,28.76,44.567,28.978,44.461z"/>
					<path fill="#47101A" d="M28.978,44.252v0.209c-0.218,0.105-0.407,0.165-0.568,0.179C28.567,44.615,28.77,44.459,28.978,44.252z
						"/>
					<path fill="#47101A" d="M28.978,36.784v7.468c-0.208,0.207-0.411,0.362-0.568,0.388c-0.022,0.004-0.042,0.005-0.063,0.004
						c-0.193-0.01-0.414-0.146-0.643-0.349v-7.511H28.978z"/>
					<rect x="27.705" y="36.141" fill="#47101A" width="1.274" height="0.643"/>
					<rect x="27.705" y="35.498" fill="#47101A" width="1.274" height="0.643"/>
					<polygon fill="#47101A" points="28.978,29.18 28.978,35.498 27.705,35.498 27.705,29.182 28.341,29.825 					"/>
					<polygon fill="#47101A" points="28.978,28.915 28.978,29.18 28.341,29.825 27.705,29.182 27.705,28.915 28.341,28.915 					"/>
					<path fill="#47101A" d="M29.3,45.722c-0.227,0.134-0.476,0.212-0.751,0.212c-0.008,0-0.111,0-0.198,0
						C28.646,45.931,28.958,45.862,29.3,45.722z"/>
					<path fill="#47101A" d="M28.347,44.645c0.021,0.001,0.041,0,0.063-0.004c-0.017,0.004-0.032,0.005-0.048,0.005h-0.004
						C28.355,44.646,28.351,44.646,28.347,44.645z"/>
					<path fill="#47101A" d="M28.347,44.645c-0.006,0.001-0.012,0.001-0.017,0.001c-0.184-0.001-0.4-0.071-0.626-0.181v-0.17
						C27.934,44.499,28.155,44.634,28.347,44.645z"/>
					<path fill="#47101A" d="M28.252,45.932c-0.012,0-0.019,0-0.021,0c-0.343-0.009-0.644-0.094-0.911-0.23
						C27.656,45.846,27.961,45.92,28.252,45.932z"/>
					<path fill="#47101A" d="M27.705,44.465v0.618c-0.628-0.369-1.227-1.172-1.707-1.856c0.048,0.051,0.098,0.099,0.152,0.144
						C26.421,43.601,27.097,44.173,27.705,44.465z"/>
					<path fill="#47101A" d="M27.705,44.295v0.17c-0.608-0.292-1.284-0.864-1.555-1.094c-0.054-0.045-0.104-0.094-0.152-0.144
						c-0.001-0.001-0.001-0.003-0.003-0.003c-0.111-0.158-0.215-0.31-0.31-0.448c-0.258-0.517-0.339-1.207-0.432-2.175l-0.012-0.113
						c-0.098-1.012-0.459-3.814-0.527-4.348h2.989v0.643h-2.889c0.422,2.668,0.945,5.001,1.213,5.373
						c0.094,0.13,0.195,0.277,0.303,0.433C26.669,43.077,27.204,43.85,27.705,44.295z"/>
					<path fill="#47101A" d="M27.705,36.784v7.511c-0.501-0.446-1.036-1.219-1.373-1.706c-0.108-0.156-0.209-0.303-0.303-0.433
						c-0.269-0.372-0.792-2.705-1.213-5.373H27.705z"/>
					<path fill="#47101A" d="M27.705,35.498v0.643h-2.989c-0.006-0.045-0.01-0.074-0.012-0.084l-0.005-0.039l-0.01-0.039
						c-0.006-0.026-0.05-0.191-0.149-0.481H27.705z"/>
					<path fill="#47101A" d="M25.995,43.225c-0.126-0.134-0.227-0.282-0.31-0.448C25.781,42.914,25.885,43.066,25.995,43.225z"/>
					<path fill="#47101A" d="M25.686,42.777c-0.06-0.086-0.117-0.165-0.17-0.239c-0.626-0.865-1.443-6.397-1.443-6.397h0.643
						c0.068,0.534,0.429,3.336,0.527,4.348l0.012,0.113C25.346,41.57,25.427,42.259,25.686,42.777z"/>
				</g>
				<g>
				</g>
			</g>
		</g>
	</g>
</g>
</svg>
